<svg xmlns="http://www.w3.org/2000/svg" viewBox="0 0 700 700"><path fill="#E31C79" d="m597 259-32-6c-15-3-21-8-22-11 0-4 3-11 16-20l27-18c19-12 26-21 23-30-1-5-6-10-19-10l-20 2-32 7c-12 3-22 1-24-3-2-3-1-11 7-23l18-27c12-17 15-28 11-35-2-4-7-7-12-7-4 0-11 2-28 13l-27 18c-10 7-17 8-19 8s-4 0-6-2c-3-4-3-13-1-23l7-32c4-24 1-31-2-35-2-3-6-5-10-5-5 0-13 3-26 24l-18 27c-8 12-15 16-19 16-5 0-10-9-12-22l-6-32c-3-15-8-33-21-33s-18 18-21 33l-6 32c-2 13-7 22-12 22-4 0-11-4-19-16l-18-27c-13-21-21-24-26-24-4 0-8 2-10 5-3 4-6 11-2 35l7 32c2 10 2 19-1 23-2 2-4 2-6 2s-9-1-19-8l-27-18c-17-11-24-13-28-13-5 0-10 3-12 7-4 7-1 18 11 35l18 27c8 12 9 20 7 23-2 4-12 6-24 3l-32-7-20-2c-13 0-18 5-19 10-3 9 4 18 23 30l27 18c13 9 16 16 16 20-1 3-7 8-22 11l-32 6c-15 3-33 8-33 21s18 18 33 21l32 6c15 3 21 8 22 11 0 4-3 11-16 20l-27 18c-19 12-26 21-23 30 1 5 6 10 19 10l20-2 32-7c12-3 22-1 24 3 2 3 1 11-7 23l-18 27c-12 17-15 28-11 35 2 4 7 7 12 7 4 0 11-2 28-13l27-18c10-7 17-8 19-8s4 0 6 2c3 4 3 13 1 23l-7 32c-4 24-1 31 2 35 2 3 6 5 10 5 5 0 13-3 26-24l18-27c8-12 15-16 19-16 5 0 10 9 12 22l6 32c3 15 8 33 21 33s18-18 21-33l6-32c2-13 7-22 12-22 4 0 11 4 19 16l18 27c13 21 21 24 26 24 4 0 8-2 10-5 3-4 6-11 2-35l-7-32c-2-11-2-19 1-23 2-2 4-2 6-2s9 1 19 8l27 18c17 11 24 13 28 13 5 0 10-3 12-7 4-7 1-18-11-35l-18-27c-8-12-9-20-7-23 2-4 12-6 24-3l32 7 20 2c13 0 18-5 19-10 3-9-4-18-23-30l-27-18c-13-9-16-16-16-20 1-3 7-8 22-11l32-6c15-3 33-8 33-21s-18-18-33-21zm-368-6a121 121 0 0 1 185-80 9 9 0 0 1-9 14 104 104 0 0 0-159 69 9 9 0 1 1-17-3zm242 54a121 121 0 0 1-188 73 9 9 0 0 1 10-14 104 104 0 0 0 161-63 9 9 0 1 1 17 4z"/></svg>
